<?xml version="1.0" standalone="no"?>
<!DOCTYPE svg PUBLIC "-//W3C//DTD SVG 20010904//EN"
 "http://www.w3.org/TR/2001/REC-SVG-20010904/DTD/svg10.dtd">
<svg version="1.0" xmlns="http://www.w3.org/2000/svg"
 width="593.000000pt" height="593.000000pt" viewBox="0 0 593.000000 593.000000"
 preserveAspectRatio="xMidYMid meet">
<metadata>
Created by potrace 1.11, written by Peter Selinger 2001-2013
</metadata>
<g transform="translate(0.000000,593.000000) scale(0.100000,-0.100000)"
fill="#000000" stroke="none">
<path d="M5178 5909 c-20 -10 -73 -60 -118 -111 -116 -132 -166 -176 -235
-209 -100 -48 -231 -43 -352 12 -24 10 -45 19 -48 19 -3 0 -56 28 -118 63
-160 91 -207 106 -241 78 -37 -31 -51 -82 -51 -191 1 -161 20 -262 99 -515
106 -338 125 -458 91 -571 -22 -77 -101 -143 -188 -159 -12 -3 -33 -7 -47 -10
-23 -4 -49 -9 -125 -21 -16 -2 -41 -7 -55 -9 -14 -3 -36 -7 -50 -10 -66 -12
-90 -17 -150 -31 -182 -42 -431 -130 -512 -181 -21 -12 -41 -23 -46 -23 -8 0
-223 -138 -232 -149 -3 -3 -25 -22 -50 -42 -25 -20 -73 -63 -106 -95 -55 -53
-88 -88 -174 -190 -13 -16 -53 -72 -87 -124 -35 -52 -67 -100 -71 -106 -35
-50 -140 -265 -185 -379 -77 -190 -143 -413 -221 -745 -88 -370 -124 -464
-224 -580 -238 -278 -418 -409 -786 -572 -208 -91 -302 -146 -361 -209 -82
-88 -125 -220 -121 -379 1 -61 7 -87 33 -140 53 -111 150 -203 288 -272 106
-54 220 -71 250 -38 25 27 14 49 -81 152 -102 112 -136 173 -140 247 -3 58 7
87 46 141 75 103 182 164 585 335 127 53 239 101 250 106 62 26 103 40 176 60
137 37 218 18 322 -74 l39 -34 905 -1 905 0 -4 88 c-11 189 -74 233 -341 239
-51 1 -93 4 -95 6 -12 12 112 282 192 418 76 130 168 250 224 293 47 36 48 36
127 32 98 -6 143 -27 184 -84 38 -52 58 -129 65 -253 4 -51 9 -97 12 -102 3
-5 7 -19 9 -31 8 -40 58 -151 98 -217 152 -251 374 -443 513 -443 60 0 87 20
120 89 53 108 36 179 -72 293 -91 96 -99 107 -174 220 -52 80 -103 240 -124
394 -13 90 -14 399 -2 471 4 22 9 59 11 83 11 107 57 295 92 372 35 79 93 190
103 200 3 3 17 21 30 40 22 33 126 158 185 225 169 188 226 326 228 550 1 115
-5 203 -18 261 -2 11 -17 76 -34 147 -44 188 -40 323 13 425 9 17 42 63 74
104 110 136 118 176 77 378 -3 14 -12 68 -21 120 -8 52 -17 106 -20 120 -6 36
-13 101 -29 255 -14 139 -21 167 -48 216 -34 63 -119 84 -189 48z"/>
</g>
</svg>
